<?xml version="1.0" standalone="no"?>
<!DOCTYPE svg PUBLIC "-//W3C//DTD SVG 20010904//EN"
 "http://www.w3.org/TR/2001/REC-SVG-20010904/DTD/svg10.dtd">
<svg version="1.0" xmlns="http://www.w3.org/2000/svg"
 width="1000.000000pt" height="1000.000000pt" viewBox="0 0 1000.000000 1000.000000"
 preserveAspectRatio="xMidYMid meet">
<metadata>
Created by potrace 1.16, written by Peter Selinger 2001-2019
</metadata>
<g transform="translate(0.000000,1000.000000) scale(0.100000,-0.100000)"
fill="#000000" stroke="none">
<path d="M4750 8894 c-287 -35 -426 -64 -634 -131 -900 -289 -1600 -1011
-1872 -1932 -77 -259 -108 -489 -108 -796 0 -242 9 -347 50 -558 234 -1213
1246 -2148 2479 -2292 169 -20 501 -20 670 0 1138 133 2100 945 2419 2042 79
273 110 500 110 808 0 241 -10 348 -50 555 -194 1007 -942 1853 -1917 2169
-310 101 -509 132 -857 136 -140 2 -271 1 -290 -1z m589 -170 c418 -54 804
-198 1151 -429 172 -115 273 -198 421 -345 225 -223 379 -439 520 -725 130
-266 211 -521 255 -810 23 -149 27 -578 6 -720 -85 -593 -335 -1114 -730
-1527 -437 -457 -990 -737 -1622 -825 -171 -23 -509 -23 -680 0 -632 88 -1185
368 -1622 825 -395 413 -645 934 -730 1527 -21 142 -17 571 6 720 44 290 125
545 256 810 141 288 293 499 519 725 144 144 246 228 412 339 399 268 854 421
1359 455 95 6 361 -5 479 -20z"/>
<path d="M4875 8624 c-293 -21 -526 -68 -749 -148 -854 -310 -1487 -1041
-1666 -1923 -70 -347 -66 -732 11 -1091 55 -256 207 -614 356 -842 855 -1299
2633 -1569 3828 -581 487 403 807 972 910 1618 26 157 31 490 11 663 -39 332
-125 617 -275 906 -399 768 -1154 1289 -2006 1383 -105 12 -347 20 -420 15z
m-143 -906 c-85 -343 -158 -627 -163 -632 -5 -6 -990 574 -1101 649 -14 9 -6
20 65 79 329 273 740 452 1172 510 55 8 119 14 141 15 l42 1 -156 -622z m555
607 c437 -58 847 -235 1180 -511 71 -59 79 -70 65 -79 -111 -75 -1096 -655
-1101 -649 -5 5 -78 289 -163 632 l-156 622 29 0 c15 0 81 -7 146 -15z m-287
-844 l0 -698 -77 -6 c-87 -7 -163 -27 -237 -63 -27 -13 -53 -24 -57 -24 -3 0
77 335 180 745 102 410 187 745 188 745 2 0 3 -314 3 -699z m-1375 -453 c182
-303 331 -554 333 -558 3 -8 -1256 -326 -1262 -319 -7 8 15 199 34 299 72 383
237 739 484 1042 39 49 73 88 76 88 3 -1 154 -249 335 -552z m3168 456 c215
-264 386 -617 461 -954 35 -158 61 -380 45 -380 -11 0 -1252 310 -1256 314 -2
2 609 1025 654 1095 8 13 18 19 22 15 5 -5 38 -45 74 -90z m-753 -409 c-267
-267 -487 -485 -490 -485 -3 0 -24 75 -47 166 l-41 166 50 31 c101 63 1003
605 1008 606 3 1 -213 -217 -480 -484z m-1603 -496 c-6 -3 -81 -23 -165 -44
-130 -32 -156 -36 -166 -24 -10 11 -270 442 -614 1019 -9 14 204 -193 471
-460 303 -301 482 -487 474 -491z m758 32 c247 -84 415 -317 415 -576 0 -98
-19 -177 -66 -273 -42 -87 -134 -189 -218 -244 -191 -123 -461 -123 -652 0
-126 82 -231 229 -269 377 -73 286 98 604 381 711 135 51 271 52 409 5z m1207
-387 c409 -102 744 -187 747 -190 2 -2 -311 -4 -696 -4 l-700 0 -6 68 c-9 88
-31 173 -67 250 -16 34 -27 62 -24 62 2 0 338 -84 746 -186z m-2149 -251 c9
-89 31 -174 67 -250 16 -35 25 -63 19 -63 -17 0 -1453 360 -1474 369 -12 6
247 10 681 10 l701 1 6 -67z m-925 -210 c345 -86 628 -157 630 -158 5 -4 -662
-1114 -669 -1115 -4 0 -44 47 -90 105 -258 324 -429 717 -483 1111 -16 120
-25 214 -19 214 2 0 285 -70 631 -157z m3976 105 c-40 -407 -151 -740 -352
-1060 -64 -104 -228 -318 -241 -318 -7 1 -674 1111 -669 1115 5 3 1242 313
1255 314 9 1 11 -14 7 -51z m-1106 -808 c166 -278 308 -514 314 -525 5 -11
-209 198 -476 465 -267 267 -480 487 -474 489 46 16 306 79 318 78 7 -1 151
-229 318 -507z m-1701 253 c23 -92 41 -169 40 -169 -3 -3 -1040 -625 -1052
-631 -5 -3 208 213 475 481 267 267 487 486 490 486 3 0 24 -75 47 -167z m696
-670 c-101 -406 -185 -742 -188 -748 -2 -5 -4 305 -4 691 l-1 701 83 6 c82 6
182 33 247 68 19 10 38 18 41 19 4 0 -76 -332 -178 -737z m-462 -286 l157
-627 -34 0 c-63 0 -270 31 -379 57 -363 86 -706 263 -1001 518 l-23 20 552
332 c303 182 556 330 562 329 5 -1 80 -284 166 -629z m1249 308 c298 -179 548
-328 556 -333 11 -6 -6 -25 -68 -77 -261 -216 -609 -389 -943 -468 -109 -26
-316 -57 -379 -57 l-34 0 155 618 c162 651 160 642 167 642 3 0 248 -146 546
-325z"/>
<path d="M4453 8150 c-29 -12 -28 -21 11 -160 l32 -115 34 3 c19 1 35 4 36 5
2 1 -11 64 -29 140 -33 144 -35 147 -84 127z"/>
<path d="M3935 7943 c-17 -9 -32 -17 -34 -19 -3 -2 123 -229 135 -243 6 -7 64
21 64 31 0 12 -119 236 -128 242 -4 2 -21 -3 -37 -11z"/>
<path d="M5517 8012 c-20 -75 -35 -138 -33 -140 2 -1 19 -5 37 -8 l34 -6 38
132 c21 72 37 133 35 135 -2 2 -19 7 -39 13 l-36 10 -36 -136z"/>
<path d="M6067 7908 c-8 -13 -40 -68 -71 -122 -44 -76 -54 -101 -44 -108 29
-20 50 -29 54 -25 10 10 144 230 144 236 0 4 -12 14 -27 22 -16 7 -31 15 -35
17 -4 2 -13 -7 -21 -20z"/>
<path d="M3127 7160 c-9 -15 -17 -33 -17 -38 0 -10 221 -142 238 -142 10 0 37
58 31 64 -6 6 -196 124 -217 135 -15 8 -22 4 -35 -19z"/>
<path d="M2900 6634 c-7 -20 -8 -39 -4 -43 17 -14 257 -72 265 -64 4 4 11 20
14 35 7 26 5 27 -82 53 -48 14 -108 33 -132 41 -25 7 -46 14 -47 14 -1 0 -8
-16 -14 -36z"/>
<path d="M6755 7064 c-60 -36 -111 -67 -113 -69 -2 -2 4 -16 14 -32 10 -15 19
-29 19 -30 4 -8 245 130 245 140 0 19 -29 57 -43 57 -7 -1 -61 -30 -122 -66z"/>
<path d="M7075 6605 c-5 -2 -62 -18 -127 -35 l-116 -32 9 -30 c4 -17 10 -33
13 -35 2 -3 65 9 139 27 l134 32 -9 39 c-10 36 -18 43 -43 34z"/>
<path d="M4928 6296 c-90 -25 -158 -90 -188 -180 -21 -63 -8 -167 26 -224 33
-53 105 -106 167 -123 132 -36 293 55 328 184 15 56 7 153 -16 201 -55 114
-194 177 -317 142z"/>
<path d="M3010 5574 c-52 -13 -105 -26 -116 -29 -20 -4 -21 -8 -12 -45 8 -30
15 -39 27 -36 24 7 160 43 209 56 43 11 51 26 36 64 -8 20 -28 19 -144 -10z"/>
<path d="M3200 5077 c-63 -34 -116 -69 -118 -78 -1 -9 6 -26 16 -39 l19 -24
120 69 121 69 -16 33 c-9 18 -18 33 -21 33 -3 0 -58 -29 -121 -63z"/>
<path d="M6836 5542 c-2 -4 -6 -20 -10 -37 l-6 -30 130 -39 c77 -23 134 -35
139 -30 13 13 24 74 14 74 -4 0 -65 15 -135 34 -71 19 -130 31 -132 28z"/>
<path d="M6631 5059 c-11 -18 -19 -34 -18 -35 16 -13 233 -144 239 -144 11 0
40 59 34 69 -3 4 -47 32 -98 61 -51 30 -103 60 -115 68 -21 13 -24 12 -42 -19z"/>
<path d="M3921 4307 c-39 -63 -71 -118 -71 -123 0 -9 51 -44 63 -44 6 0 137
227 137 238 0 9 -43 42 -54 42 -3 0 -36 -51 -75 -113z"/>
<path d="M4426 4159 c-8 -30 -26 -90 -40 -134 l-24 -80 37 -11 c20 -6 39 -9
42 -5 10 9 73 260 67 266 -2 3 -18 8 -35 11 -30 6 -31 5 -47 -47z"/>
<path d="M5918 4372 l-26 -17 65 -123 c35 -67 69 -122 74 -122 4 0 22 8 38 18
l30 18 -70 122 c-39 67 -74 122 -77 122 -4 0 -19 -8 -34 -18z"/>
<path d="M5465 4193 c-11 -3 -23 -8 -28 -12 -7 -7 46 -257 56 -268 8 -8 77 9
77 19 0 5 -11 48 -24 96 -14 48 -29 106 -36 130 -6 23 -14 41 -18 41 -4 -1
-16 -3 -27 -6z"/>
<path d="M2420 2951 c-118 -38 -179 -129 -167 -249 10 -96 61 -147 190 -187
133 -42 157 -61 157 -125 0 -22 -9 -41 -29 -61 -26 -25 -37 -29 -87 -29 -47 0
-68 6 -121 36 -59 33 -66 34 -86 21 -13 -8 -31 -31 -42 -51 l-20 -37 25 -20
c14 -10 50 -31 80 -46 48 -24 67 -27 150 -28 83 0 102 3 145 26 152 78 179
297 47 386 -18 12 -75 36 -127 53 -108 36 -151 73 -140 119 17 73 114 94 212
45 28 -15 59 -24 67 -21 19 8 59 85 52 102 -2 7 -30 25 -62 41 -45 22 -73 28
-138 31 -45 1 -92 -1 -106 -6z"/>
<path d="M2989 2923 c-5 -16 -71 -183 -146 -373 -74 -190 -138 -351 -140 -357
-4 -10 14 -13 70 -13 48 0 78 4 84 13 6 6 23 49 39 95 l29 82 154 -2 153 -3
30 -80 c16 -44 35 -86 42 -93 9 -9 35 -12 83 -10 l70 3 -150 383 -150 382 -79
0 c-76 0 -79 -1 -89 -27z m147 -296 l52 -142 -105 -3 c-58 -1 -107 -1 -109 1
-2 2 20 69 48 150 29 80 55 143 58 140 3 -2 28 -68 56 -146z"/>
<path d="M3470 2565 l0 -385 70 0 70 0 0 256 0 256 201 -256 200 -256 60 0 59
0 0 385 0 385 -70 0 -70 0 -2 -253 -3 -254 -198 254 -198 253 -60 0 -59 0 0
-385z"/>
<path d="M4160 2890 l0 -60 120 0 120 0 0 -325 0 -325 75 0 75 0 0 325 0 325
115 0 115 0 0 60 0 60 -310 0 -310 0 0 -60z"/>
<path d="M4810 2680 c0 -247 2 -274 20 -324 25 -66 78 -123 146 -156 42 -21
63 -25 149 -25 119 0 183 23 241 87 76 84 79 99 82 411 l3 277 -75 0 -76 0 0
-237 c0 -131 -5 -256 -10 -277 -12 -54 -38 -87 -91 -114 -80 -42 -179 -10
-218 72 -20 39 -21 60 -21 299 l0 257 -75 0 -75 0 0 -270z"/>
<path d="M5550 2565 l0 -385 65 0 65 0 0 268 0 267 116 -215 c63 -118 121
-218 127 -222 7 -4 29 -8 49 -8 46 0 46 0 174 243 l99 188 3 -260 2 -261 70 0
70 0 0 385 0 385 -79 0 -79 0 -95 -177 c-52 -98 -112 -210 -132 -249 l-37 -72
-49 92 c-26 50 -85 161 -131 246 l-84 155 -77 3 -77 3 0 -386z"/>
<path d="M6672 2873 c-25 -63 -250 -633 -269 -680 -7 -18 140 -18 155 0 6 7
24 48 40 92 l29 80 153 0 153 0 29 -80 c16 -44 35 -86 42 -93 9 -9 35 -12 84
-10 l71 3 -63 160 c-35 88 -102 260 -150 383 l-88 222 -78 0 -79 0 -29 -77z
m118 -105 c0 -7 23 -73 50 -147 28 -73 50 -135 50 -137 0 -2 -50 -4 -111 -4
-102 0 -111 1 -104 18 28 72 95 262 95 271 0 6 5 11 10 11 6 0 10 -6 10 -12z"/>
<path d="M7170 2565 l0 -385 80 0 80 0 0 150 0 150 33 0 c17 0 38 -4 45 -9 8
-5 55 -71 105 -147 l92 -139 88 -3 c48 -1 87 0 87 3 0 3 -49 77 -109 164
l-108 159 50 33 c64 43 90 92 95 179 3 53 -1 74 -20 110 -48 94 -126 120 -355
120 l-163 0 0 -385z m324 251 c45 -19 66 -52 66 -102 0 -79 -62 -124 -170
-124 l-60 0 0 120 0 120 65 0 c36 0 81 -6 99 -14z"/>
<path d="M4903 2025 c-54 -27 -97 -74 -115 -125 -8 -23 -16 -30 -36 -30 -15 0
-443 -11 -952 -25 -509 -14 -972 -25 -1030 -26 -66 0 -98 -3 -85 -9 11 -4 423
-18 915 -29 492 -12 959 -24 1036 -28 l141 -6 17 -38 c38 -86 122 -139 221
-139 99 0 183 53 221 139 l17 38 141 6 c77 4 537 16 1021 28 484 11 889 25
900 29 13 6 -18 9 -85 9 -58 1 -514 12 -1015 26 -500 14 -922 25 -937 25 -20
0 -28 7 -36 30 -45 128 -210 189 -339 125z m185 -102 c33 -21 62 -73 62 -113
0 -52 -33 -98 -87 -122 -46 -20 -47 -20 -92 -1 -100 41 -121 155 -43 226 41
38 110 42 160 10z"/>
<path d="M2650 1495 c0 -12 16 -15 80 -15 l80 0 0 -200 c0 -171 2 -200 15
-200 13 0 15 29 15 200 l0 200 85 0 c69 0 85 3 85 15 0 13 -27 15 -180 15
-153 0 -180 -2 -180 -15z"/>
<path d="M3060 1295 c0 -184 2 -215 15 -215 12 0 15 18 15 100 0 110 11 145
51 166 41 21 65 17 101 -15 l33 -29 3 -111 c3 -87 7 -111 18 -111 11 0 14 19
14 93 0 50 -5 109 -10 129 -21 73 -99 105 -170 70 l-40 -19 0 78 c0 64 -3 79
-15 79 -13 0 -15 -31 -15 -215z"/>
<path d="M5890 1295 c0 -178 2 -215 14 -215 11 0 15 24 18 111 l3 111 33 29
c36 32 60 36 101 15 40 -21 51 -56 51 -166 0 -82 3 -100 15 -100 12 0 15 19
15 108 0 124 -16 163 -75 188 -45 19 -63 18 -108 -5 l-37 -19 0 79 c0 64 -3
79 -15 79 -13 0 -15 -31 -15 -215z"/>
<path d="M5240 1420 c0 -15 -7 -20 -25 -20 -16 0 -25 -6 -25 -15 0 -9 9 -15
25 -15 l25 0 0 -114 c0 -63 3 -122 6 -131 6 -16 54 -45 74 -45 5 0 10 7 10 15
0 8 -6 15 -13 15 -8 0 -21 8 -30 18 -14 15 -17 40 -17 130 l0 112 30 0 c20 0
30 5 30 15 0 10 -10 15 -30 15 -23 0 -30 4 -30 20 0 11 -7 20 -15 20 -8 0 -15
-9 -15 -20z"/>
<path d="M3440 1381 c-54 -28 -80 -74 -80 -140 0 -109 84 -176 190 -152 43 10
100 54 100 78 0 20 -15 15 -49 -16 -17 -16 -45 -32 -61 -36 -59 -13 -126 26
-149 88 l-11 27 145 0 145 0 0 28 c0 45 -33 94 -80 119 -52 28 -104 29 -150 4z
m131 -26 c27 -14 69 -68 69 -87 0 -5 -56 -8 -125 -8 -133 0 -137 2 -111 48 31
56 107 77 167 47z"/>
<path d="M3944 1391 c-51 -22 -70 -95 -35 -130 11 -11 45 -25 78 -31 96 -20
128 -54 85 -93 -45 -41 -145 -22 -158 29 -7 28 -34 32 -34 5 0 -57 94 -101
170 -81 45 12 70 42 70 82 0 41 -28 63 -106 82 -79 20 -94 30 -94 62 0 27 43
54 85 54 26 0 75 -39 75 -60 0 -5 7 -10 16 -10 21 0 10 37 -21 69 -25 26 -95
37 -131 22z"/>
<path d="M4234 1390 c-12 -4 -31 -21 -43 -36 -19 -24 -21 -39 -21 -150 0 -104
2 -124 15 -124 13 0 15 20 15 120 0 115 1 122 25 145 31 32 75 32 112 1 27
-24 28 -27 31 -145 3 -96 7 -121 18 -121 11 0 14 23 14 120 0 115 1 122 25
145 26 27 63 32 97 14 34 -18 48 -70 48 -179 0 -60 4 -100 10 -100 6 0 10 48
10 125 0 124 0 125 -29 157 -26 29 -36 33 -79 33 -40 0 -56 -5 -77 -25 -16
-15 -29 -21 -33 -14 -26 38 -90 54 -138 34z"/>
<path d="M4735 1386 c-75 -33 -112 -126 -80 -201 22 -53 40 -71 91 -91 52 -20
97 -13 148 21 l36 24 0 -29 c0 -21 5 -30 16 -30 14 0 15 15 12 109 -3 118 -12
141 -70 184 -33 25 -113 32 -153 13z m132 -36 c72 -43 82 -134 22 -196 -56
-57 -125 -55 -183 5 -100 104 38 267 161 191z"/>
<path d="M5621 1378 c-53 -27 -81 -75 -81 -136 0 -143 170 -213 266 -110 34
36 49 68 33 68 -5 0 -27 -18 -47 -39 -88 -93 -222 -40 -222 88 0 36 6 49 33
76 60 60 134 59 186 0 17 -19 37 -35 46 -35 14 0 14 3 0 29 -37 73 -136 100
-214 59z"/>
<path d="M6270 1378 c-141 -73 -86 -292 73 -292 98 0 157 58 157 156 0 125
-116 194 -230 136z m157 -39 c62 -57 63 -142 3 -193 -87 -73 -210 -14 -210 99
0 104 132 163 207 94z"/>
<path d="M6775 1386 c-45 -20 -83 -70 -90 -120 -19 -123 104 -218 218 -168 58
26 113 102 74 102 -7 0 -20 -13 -30 -29 -18 -31 -71 -61 -109 -61 -54 0 -128
74 -128 128 0 67 64 132 130 132 40 0 93 -29 110 -59 11 -21 40 -29 40 -12 0
5 -12 24 -27 42 -47 55 -123 74 -188 45z"/>
<path d="M7119 1378 c-68 -39 -97 -127 -65 -201 42 -99 178 -124 255 -46 54
53 32 70 -25 19 -45 -39 -91 -47 -139 -24 -36 17 -75 65 -75 92 0 9 35 12 140
12 l140 0 0 34 c0 103 -135 170 -231 114z m143 -25 c16 -10 39 -35 49 -55 l19
-38 -130 0 c-71 0 -130 2 -130 5 0 4 7 19 15 36 33 62 116 87 177 52z"/>
</g>
</svg>
